G04 #@! TF.GenerationSoftware,KiCad,Pcbnew,(5.0.2)-1*
G04 #@! TF.CreationDate,2019-05-13T16:27:43-07:00*
G04 #@! TF.ProjectId,pickit3_icsp_adapter,7069636b-6974-4335-9f69-6373705f6164,rev?*
G04 #@! TF.SameCoordinates,Original*
G04 #@! TF.FileFunction,Legend,Top*
G04 #@! TF.FilePolarity,Positive*
%FSLAX46Y46*%
G04 Gerber Fmt 4.6, Leading zero omitted, Abs format (unit mm)*
G04 Created by KiCad (PCBNEW (5.0.2)-1) date 5/13/2019 4:27:43 PM*
%MOMM*%
%LPD*%
G01*
G04 APERTURE LIST*
%ADD10C,0.150000*%
G04 APERTURE END LIST*
D10*
G36*
X13970000Y-5080000D02*
X15240000Y-4445000D01*
X15240000Y-5715000D01*
X13970000Y-5080000D01*
G37*
X13970000Y-5080000D02*
X15240000Y-4445000D01*
X15240000Y-5715000D01*
X13970000Y-5080000D01*
X10971785Y-11882380D02*
X10495595Y-11882380D01*
X10495595Y-10882380D01*
X11162261Y-10882380D02*
X11495595Y-11882380D01*
X11828928Y-10882380D01*
X12162261Y-11882380D02*
X12162261Y-10882380D01*
X12543214Y-10882380D01*
X12638452Y-10930000D01*
X12686071Y-10977619D01*
X12733690Y-11072857D01*
X12733690Y-11215714D01*
X12686071Y-11310952D01*
X12638452Y-11358571D01*
X12543214Y-11406190D01*
X12162261Y-11406190D01*
X10495595Y-10612380D02*
X10495595Y-9612380D01*
X10876547Y-9612380D01*
X10971785Y-9660000D01*
X11019404Y-9707619D01*
X11067023Y-9802857D01*
X11067023Y-9945714D01*
X11019404Y-10040952D01*
X10971785Y-10088571D01*
X10876547Y-10136190D01*
X10495595Y-10136190D01*
X12019404Y-9660000D02*
X11924166Y-9612380D01*
X11781309Y-9612380D01*
X11638452Y-9660000D01*
X11543214Y-9755238D01*
X11495595Y-9850476D01*
X11447976Y-10040952D01*
X11447976Y-10183809D01*
X11495595Y-10374285D01*
X11543214Y-10469523D01*
X11638452Y-10564761D01*
X11781309Y-10612380D01*
X11876547Y-10612380D01*
X12019404Y-10564761D01*
X12067023Y-10517142D01*
X12067023Y-10183809D01*
X11876547Y-10183809D01*
X13067023Y-10517142D02*
X13019404Y-10564761D01*
X12876547Y-10612380D01*
X12781309Y-10612380D01*
X12638452Y-10564761D01*
X12543214Y-10469523D01*
X12495595Y-10374285D01*
X12447976Y-10183809D01*
X12447976Y-10040952D01*
X12495595Y-9850476D01*
X12543214Y-9755238D01*
X12638452Y-9660000D01*
X12781309Y-9612380D01*
X12876547Y-9612380D01*
X13019404Y-9660000D01*
X13067023Y-9707619D01*
X10495595Y-9342380D02*
X10495595Y-8342380D01*
X10876547Y-8342380D01*
X10971785Y-8390000D01*
X11019404Y-8437619D01*
X11067023Y-8532857D01*
X11067023Y-8675714D01*
X11019404Y-8770952D01*
X10971785Y-8818571D01*
X10876547Y-8866190D01*
X10495595Y-8866190D01*
X12019404Y-8390000D02*
X11924166Y-8342380D01*
X11781309Y-8342380D01*
X11638452Y-8390000D01*
X11543214Y-8485238D01*
X11495595Y-8580476D01*
X11447976Y-8770952D01*
X11447976Y-8913809D01*
X11495595Y-9104285D01*
X11543214Y-9199523D01*
X11638452Y-9294761D01*
X11781309Y-9342380D01*
X11876547Y-9342380D01*
X12019404Y-9294761D01*
X12067023Y-9247142D01*
X12067023Y-8913809D01*
X11876547Y-8913809D01*
X12495595Y-9342380D02*
X12495595Y-8342380D01*
X12733690Y-8342380D01*
X12876547Y-8390000D01*
X12971785Y-8485238D01*
X13019404Y-8580476D01*
X13067023Y-8770952D01*
X13067023Y-8913809D01*
X13019404Y-9104285D01*
X12971785Y-9199523D01*
X12876547Y-9294761D01*
X12733690Y-9342380D01*
X12495595Y-9342380D01*
X11019404Y-7120000D02*
X10924166Y-7072380D01*
X10781309Y-7072380D01*
X10638452Y-7120000D01*
X10543214Y-7215238D01*
X10495595Y-7310476D01*
X10447976Y-7500952D01*
X10447976Y-7643809D01*
X10495595Y-7834285D01*
X10543214Y-7929523D01*
X10638452Y-8024761D01*
X10781309Y-8072380D01*
X10876547Y-8072380D01*
X11019404Y-8024761D01*
X11067023Y-7977142D01*
X11067023Y-7643809D01*
X10876547Y-7643809D01*
X11495595Y-8072380D02*
X11495595Y-7072380D01*
X12067023Y-8072380D01*
X12067023Y-7072380D01*
X12543214Y-8072380D02*
X12543214Y-7072380D01*
X12781309Y-7072380D01*
X12924166Y-7120000D01*
X13019404Y-7215238D01*
X13067023Y-7310476D01*
X13114642Y-7500952D01*
X13114642Y-7643809D01*
X13067023Y-7834285D01*
X13019404Y-7929523D01*
X12924166Y-8024761D01*
X12781309Y-8072380D01*
X12543214Y-8072380D01*
X10352738Y-5802380D02*
X10686071Y-6802380D01*
X11019404Y-5802380D01*
X11352738Y-6802380D02*
X11352738Y-5802380D01*
X11590833Y-5802380D01*
X11733690Y-5850000D01*
X11828928Y-5945238D01*
X11876547Y-6040476D01*
X11924166Y-6230952D01*
X11924166Y-6373809D01*
X11876547Y-6564285D01*
X11828928Y-6659523D01*
X11733690Y-6754761D01*
X11590833Y-6802380D01*
X11352738Y-6802380D01*
X12352738Y-6802380D02*
X12352738Y-5802380D01*
X12590833Y-5802380D01*
X12733690Y-5850000D01*
X12828928Y-5945238D01*
X12876547Y-6040476D01*
X12924166Y-6230952D01*
X12924166Y-6373809D01*
X12876547Y-6564285D01*
X12828928Y-6659523D01*
X12733690Y-6754761D01*
X12590833Y-6802380D01*
X12352738Y-6802380D01*
X10352738Y-4532380D02*
X10686071Y-5532380D01*
X11019404Y-4532380D01*
X11352738Y-5532380D02*
X11352738Y-4532380D01*
X11733690Y-4532380D01*
X11828928Y-4580000D01*
X11876547Y-4627619D01*
X11924166Y-4722857D01*
X11924166Y-4865714D01*
X11876547Y-4960952D01*
X11828928Y-5008571D01*
X11733690Y-5056190D01*
X11352738Y-5056190D01*
X12352738Y-5532380D02*
X12352738Y-4532380D01*
X12733690Y-4532380D01*
X12828928Y-4580000D01*
X12876547Y-4627619D01*
X12924166Y-4722857D01*
X12924166Y-4865714D01*
X12876547Y-4960952D01*
X12828928Y-5008571D01*
X12733690Y-5056190D01*
X12352738Y-5056190D01*
M02*
