G04 #@! TF.GenerationSoftware,KiCad,Pcbnew,(5.0.2)-1*
G04 #@! TF.CreationDate,2019-05-05T03:28:13-07:00*
G04 #@! TF.ProjectId,pickit3-icsp-adapter,7069636b-6974-4332-9d69-6373702d6164,rev?*
G04 #@! TF.SameCoordinates,Original*
G04 #@! TF.FileFunction,Copper,L2,Bot*
G04 #@! TF.FilePolarity,Positive*
%FSLAX46Y46*%
G04 Gerber Fmt 4.6, Leading zero omitted, Abs format (unit mm)*
G04 Created by KiCad (PCBNEW (5.0.2)-1) date 5/5/2019 3:28:13 AM*
%MOMM*%
%LPD*%
G01*
G04 APERTURE LIST*
G04 #@! TA.AperFunction,ComponentPad*
%ADD10O,1.700000X1.700000*%
G04 #@! TD*
G04 #@! TA.AperFunction,ComponentPad*
%ADD11R,1.700000X1.700000*%
G04 #@! TD*
G04 #@! TA.AperFunction,ComponentPad*
%ADD12C,0.800000*%
G04 #@! TD*
G04 #@! TA.AperFunction,ComponentPad*
%ADD13C,6.400000*%
G04 #@! TD*
G04 #@! TA.AperFunction,Conductor*
%ADD14C,0.254000*%
G04 #@! TD*
G04 APERTURE END LIST*
D10*
G04 #@! TO.P,J1,6*
G04 #@! TO.N,/LVP*
X135890000Y-99615001D03*
G04 #@! TO.P,J1,5*
G04 #@! TO.N,/ICSPCLK*
X135890000Y-97075001D03*
G04 #@! TO.P,J1,4*
G04 #@! TO.N,/ICSPDAT*
X135890000Y-94535001D03*
G04 #@! TO.P,J1,3*
G04 #@! TO.N,/VSS*
X135890000Y-91995001D03*
G04 #@! TO.P,J1,2*
G04 #@! TO.N,/VDD*
X135890000Y-89455001D03*
D11*
G04 #@! TO.P,J1,1*
G04 #@! TO.N,/VPP*
X135890000Y-86915001D03*
G04 #@! TD*
D12*
G04 #@! TO.P,H1,1*
G04 #@! TO.N,/VSS*
X131237056Y-91012944D03*
X129540000Y-90310000D03*
X127842944Y-91012944D03*
X127140000Y-92710000D03*
X127842944Y-94407056D03*
X129540000Y-95110000D03*
X131237056Y-94407056D03*
X131940000Y-92710000D03*
D13*
X129540000Y-92710000D03*
G04 #@! TD*
D14*
G04 #@! TO.N,/VSS*
G36*
X134441843Y-85817236D02*
X134392560Y-86065001D01*
X134392560Y-87765001D01*
X134441843Y-88012766D01*
X134582191Y-88222810D01*
X134792235Y-88363158D01*
X134837619Y-88372185D01*
X134819375Y-88384376D01*
X134491161Y-88875583D01*
X134375908Y-89455001D01*
X134491161Y-90034419D01*
X134819375Y-90525626D01*
X135138478Y-90738844D01*
X135008642Y-90799818D01*
X134618355Y-91228077D01*
X134448524Y-91638111D01*
X134569845Y-91868001D01*
X135763000Y-91868001D01*
X135763000Y-91848001D01*
X136017000Y-91848001D01*
X136017000Y-91868001D01*
X137210155Y-91868001D01*
X137331476Y-91638111D01*
X137161645Y-91228077D01*
X136771358Y-90799818D01*
X136641522Y-90738844D01*
X136960625Y-90525626D01*
X137288839Y-90034419D01*
X137404092Y-89455001D01*
X137288839Y-88875583D01*
X136960625Y-88384376D01*
X136942381Y-88372185D01*
X136987765Y-88363158D01*
X137197809Y-88222810D01*
X137338157Y-88012766D01*
X137387440Y-87765001D01*
X137387440Y-86065001D01*
X137338157Y-85817236D01*
X137326640Y-85800000D01*
X140260001Y-85800000D01*
X140260000Y-100890000D01*
X136654758Y-100890000D01*
X136960625Y-100685626D01*
X137288839Y-100194419D01*
X137404092Y-99615001D01*
X137288839Y-99035583D01*
X136960625Y-98544376D01*
X136662239Y-98345001D01*
X136960625Y-98145626D01*
X137288839Y-97654419D01*
X137404092Y-97075001D01*
X137288839Y-96495583D01*
X136960625Y-96004376D01*
X136662239Y-95805001D01*
X136960625Y-95605626D01*
X137288839Y-95114419D01*
X137404092Y-94535001D01*
X137288839Y-93955583D01*
X136960625Y-93464376D01*
X136641522Y-93251158D01*
X136771358Y-93190184D01*
X137161645Y-92761925D01*
X137331476Y-92351891D01*
X137210155Y-92122001D01*
X136017000Y-92122001D01*
X136017000Y-92142001D01*
X135763000Y-92142001D01*
X135763000Y-92122001D01*
X134569845Y-92122001D01*
X134448524Y-92351891D01*
X134618355Y-92761925D01*
X135008642Y-93190184D01*
X135138478Y-93251158D01*
X134819375Y-93464376D01*
X134491161Y-93955583D01*
X134375908Y-94535001D01*
X134491161Y-95114419D01*
X134819375Y-95605626D01*
X135117761Y-95805001D01*
X134819375Y-96004376D01*
X134491161Y-96495583D01*
X134375908Y-97075001D01*
X134491161Y-97654419D01*
X134819375Y-98145626D01*
X135117761Y-98345001D01*
X134819375Y-98544376D01*
X134491161Y-99035583D01*
X134375908Y-99615001D01*
X134491161Y-100194419D01*
X134819375Y-100685626D01*
X135125242Y-100890000D01*
X123484092Y-100890000D01*
X119931494Y-97337404D01*
X119891881Y-97278119D01*
X119657028Y-97121195D01*
X119449926Y-97080000D01*
X119449924Y-97080000D01*
X119380000Y-97066091D01*
X119310076Y-97080000D01*
X109930000Y-97080000D01*
X109930000Y-95450910D01*
X126978695Y-95450910D01*
X127345640Y-95946343D01*
X128751171Y-96539736D01*
X130276793Y-96550087D01*
X131690246Y-95975819D01*
X131734360Y-95946343D01*
X132101305Y-95450910D01*
X129540000Y-92889605D01*
X126978695Y-95450910D01*
X109930000Y-95450910D01*
X109930000Y-93446793D01*
X125699913Y-93446793D01*
X126274181Y-94860246D01*
X126303657Y-94904360D01*
X126799090Y-95271305D01*
X129360395Y-92710000D01*
X129719605Y-92710000D01*
X132280910Y-95271305D01*
X132776343Y-94904360D01*
X133369736Y-93498829D01*
X133380087Y-91973207D01*
X132805819Y-90559754D01*
X132776343Y-90515640D01*
X132280910Y-90148695D01*
X129719605Y-92710000D01*
X129360395Y-92710000D01*
X126799090Y-90148695D01*
X126303657Y-90515640D01*
X125710264Y-91921171D01*
X125699913Y-93446793D01*
X109930000Y-93446793D01*
X109930000Y-89969090D01*
X126978695Y-89969090D01*
X129540000Y-92530395D01*
X132101305Y-89969090D01*
X131734360Y-89473657D01*
X130328829Y-88880264D01*
X128803207Y-88869913D01*
X127389754Y-89444181D01*
X127345640Y-89473657D01*
X126978695Y-89969090D01*
X109930000Y-89969090D01*
X109930000Y-89610000D01*
X119310076Y-89610000D01*
X119380000Y-89623909D01*
X119449924Y-89610000D01*
X119449926Y-89610000D01*
X119657028Y-89568805D01*
X119891881Y-89411881D01*
X119931494Y-89352596D01*
X123484092Y-85800000D01*
X134453360Y-85800000D01*
X134441843Y-85817236D01*
X134441843Y-85817236D01*
G37*
X134441843Y-85817236D02*
X134392560Y-86065001D01*
X134392560Y-87765001D01*
X134441843Y-88012766D01*
X134582191Y-88222810D01*
X134792235Y-88363158D01*
X134837619Y-88372185D01*
X134819375Y-88384376D01*
X134491161Y-88875583D01*
X134375908Y-89455001D01*
X134491161Y-90034419D01*
X134819375Y-90525626D01*
X135138478Y-90738844D01*
X135008642Y-90799818D01*
X134618355Y-91228077D01*
X134448524Y-91638111D01*
X134569845Y-91868001D01*
X135763000Y-91868001D01*
X135763000Y-91848001D01*
X136017000Y-91848001D01*
X136017000Y-91868001D01*
X137210155Y-91868001D01*
X137331476Y-91638111D01*
X137161645Y-91228077D01*
X136771358Y-90799818D01*
X136641522Y-90738844D01*
X136960625Y-90525626D01*
X137288839Y-90034419D01*
X137404092Y-89455001D01*
X137288839Y-88875583D01*
X136960625Y-88384376D01*
X136942381Y-88372185D01*
X136987765Y-88363158D01*
X137197809Y-88222810D01*
X137338157Y-88012766D01*
X137387440Y-87765001D01*
X137387440Y-86065001D01*
X137338157Y-85817236D01*
X137326640Y-85800000D01*
X140260001Y-85800000D01*
X140260000Y-100890000D01*
X136654758Y-100890000D01*
X136960625Y-100685626D01*
X137288839Y-100194419D01*
X137404092Y-99615001D01*
X137288839Y-99035583D01*
X136960625Y-98544376D01*
X136662239Y-98345001D01*
X136960625Y-98145626D01*
X137288839Y-97654419D01*
X137404092Y-97075001D01*
X137288839Y-96495583D01*
X136960625Y-96004376D01*
X136662239Y-95805001D01*
X136960625Y-95605626D01*
X137288839Y-95114419D01*
X137404092Y-94535001D01*
X137288839Y-93955583D01*
X136960625Y-93464376D01*
X136641522Y-93251158D01*
X136771358Y-93190184D01*
X137161645Y-92761925D01*
X137331476Y-92351891D01*
X137210155Y-92122001D01*
X136017000Y-92122001D01*
X136017000Y-92142001D01*
X135763000Y-92142001D01*
X135763000Y-92122001D01*
X134569845Y-92122001D01*
X134448524Y-92351891D01*
X134618355Y-92761925D01*
X135008642Y-93190184D01*
X135138478Y-93251158D01*
X134819375Y-93464376D01*
X134491161Y-93955583D01*
X134375908Y-94535001D01*
X134491161Y-95114419D01*
X134819375Y-95605626D01*
X135117761Y-95805001D01*
X134819375Y-96004376D01*
X134491161Y-96495583D01*
X134375908Y-97075001D01*
X134491161Y-97654419D01*
X134819375Y-98145626D01*
X135117761Y-98345001D01*
X134819375Y-98544376D01*
X134491161Y-99035583D01*
X134375908Y-99615001D01*
X134491161Y-100194419D01*
X134819375Y-100685626D01*
X135125242Y-100890000D01*
X123484092Y-100890000D01*
X119931494Y-97337404D01*
X119891881Y-97278119D01*
X119657028Y-97121195D01*
X119449926Y-97080000D01*
X119449924Y-97080000D01*
X119380000Y-97066091D01*
X119310076Y-97080000D01*
X109930000Y-97080000D01*
X109930000Y-95450910D01*
X126978695Y-95450910D01*
X127345640Y-95946343D01*
X128751171Y-96539736D01*
X130276793Y-96550087D01*
X131690246Y-95975819D01*
X131734360Y-95946343D01*
X132101305Y-95450910D01*
X129540000Y-92889605D01*
X126978695Y-95450910D01*
X109930000Y-95450910D01*
X109930000Y-93446793D01*
X125699913Y-93446793D01*
X126274181Y-94860246D01*
X126303657Y-94904360D01*
X126799090Y-95271305D01*
X129360395Y-92710000D01*
X129719605Y-92710000D01*
X132280910Y-95271305D01*
X132776343Y-94904360D01*
X133369736Y-93498829D01*
X133380087Y-91973207D01*
X132805819Y-90559754D01*
X132776343Y-90515640D01*
X132280910Y-90148695D01*
X129719605Y-92710000D01*
X129360395Y-92710000D01*
X126799090Y-90148695D01*
X126303657Y-90515640D01*
X125710264Y-91921171D01*
X125699913Y-93446793D01*
X109930000Y-93446793D01*
X109930000Y-89969090D01*
X126978695Y-89969090D01*
X129540000Y-92530395D01*
X132101305Y-89969090D01*
X131734360Y-89473657D01*
X130328829Y-88880264D01*
X128803207Y-88869913D01*
X127389754Y-89444181D01*
X127345640Y-89473657D01*
X126978695Y-89969090D01*
X109930000Y-89969090D01*
X109930000Y-89610000D01*
X119310076Y-89610000D01*
X119380000Y-89623909D01*
X119449924Y-89610000D01*
X119449926Y-89610000D01*
X119657028Y-89568805D01*
X119891881Y-89411881D01*
X119931494Y-89352596D01*
X123484092Y-85800000D01*
X134453360Y-85800000D01*
X134441843Y-85817236D01*
G04 #@! TD*
M02*
