G04 #@! TF.GenerationSoftware,KiCad,Pcbnew,(5.0.2)-1*
G04 #@! TF.CreationDate,2019-05-05T20:39:21-07:00*
G04 #@! TF.ProjectId,pickit3_icsp_adapter,7069636b-6974-4335-9f69-6373705f6164,rev?*
G04 #@! TF.SameCoordinates,Original*
G04 #@! TF.FileFunction,Legend,Top*
G04 #@! TF.FilePolarity,Positive*
%FSLAX46Y46*%
G04 Gerber Fmt 4.6, Leading zero omitted, Abs format (unit mm)*
G04 Created by KiCad (PCBNEW (5.0.2)-1) date 5/5/2019 8:39:21 PM*
%MOMM*%
%LPD*%
G01*
G04 APERTURE LIST*
%ADD10C,0.150000*%
G04 APERTURE END LIST*
D10*
G36*
X13970000Y-5080000D02*
X15240000Y-4445000D01*
X15240000Y-5715000D01*
X13970000Y-5080000D01*
G37*
X13970000Y-5080000D02*
X15240000Y-4445000D01*
X15240000Y-5715000D01*
X13970000Y-5080000D01*
X10971785Y-11882380D02*
X10495595Y-11882380D01*
X10495595Y-10882380D01*
X11162261Y-10882380D02*
X11495595Y-11882380D01*
X11828928Y-10882380D01*
X12162261Y-11882380D02*
X12162261Y-10882380D01*
X12543214Y-10882380D01*
X12638452Y-10930000D01*
X12686071Y-10977619D01*
X12733690Y-11072857D01*
X12733690Y-11215714D01*
X12686071Y-11310952D01*
X12638452Y-11358571D01*
X12543214Y-11406190D01*
X12162261Y-11406190D01*
X10495595Y-10612380D02*
X10495595Y-9612380D01*
X11543214Y-10517142D02*
X11495595Y-10564761D01*
X11352738Y-10612380D01*
X11257500Y-10612380D01*
X11114642Y-10564761D01*
X11019404Y-10469523D01*
X10971785Y-10374285D01*
X10924166Y-10183809D01*
X10924166Y-10040952D01*
X10971785Y-9850476D01*
X11019404Y-9755238D01*
X11114642Y-9660000D01*
X11257500Y-9612380D01*
X11352738Y-9612380D01*
X11495595Y-9660000D01*
X11543214Y-9707619D01*
X11924166Y-10564761D02*
X12067023Y-10612380D01*
X12305119Y-10612380D01*
X12400357Y-10564761D01*
X12447976Y-10517142D01*
X12495595Y-10421904D01*
X12495595Y-10326666D01*
X12447976Y-10231428D01*
X12400357Y-10183809D01*
X12305119Y-10136190D01*
X12114642Y-10088571D01*
X12019404Y-10040952D01*
X11971785Y-9993333D01*
X11924166Y-9898095D01*
X11924166Y-9802857D01*
X11971785Y-9707619D01*
X12019404Y-9660000D01*
X12114642Y-9612380D01*
X12352738Y-9612380D01*
X12495595Y-9660000D01*
X12924166Y-10612380D02*
X12924166Y-9612380D01*
X13305119Y-9612380D01*
X13400357Y-9660000D01*
X13447976Y-9707619D01*
X13495595Y-9802857D01*
X13495595Y-9945714D01*
X13447976Y-10040952D01*
X13400357Y-10088571D01*
X13305119Y-10136190D01*
X12924166Y-10136190D01*
X14495595Y-10517142D02*
X14447976Y-10564761D01*
X14305119Y-10612380D01*
X14209880Y-10612380D01*
X14067023Y-10564761D01*
X13971785Y-10469523D01*
X13924166Y-10374285D01*
X13876547Y-10183809D01*
X13876547Y-10040952D01*
X13924166Y-9850476D01*
X13971785Y-9755238D01*
X14067023Y-9660000D01*
X14209880Y-9612380D01*
X14305119Y-9612380D01*
X14447976Y-9660000D01*
X14495595Y-9707619D01*
X15400357Y-10612380D02*
X14924166Y-10612380D01*
X14924166Y-9612380D01*
X15733690Y-10612380D02*
X15733690Y-9612380D01*
X16305119Y-10612380D02*
X15876547Y-10040952D01*
X16305119Y-9612380D02*
X15733690Y-10183809D01*
X10495595Y-9342380D02*
X10495595Y-8342380D01*
X11543214Y-9247142D02*
X11495595Y-9294761D01*
X11352738Y-9342380D01*
X11257500Y-9342380D01*
X11114642Y-9294761D01*
X11019404Y-9199523D01*
X10971785Y-9104285D01*
X10924166Y-8913809D01*
X10924166Y-8770952D01*
X10971785Y-8580476D01*
X11019404Y-8485238D01*
X11114642Y-8390000D01*
X11257500Y-8342380D01*
X11352738Y-8342380D01*
X11495595Y-8390000D01*
X11543214Y-8437619D01*
X11924166Y-9294761D02*
X12067023Y-9342380D01*
X12305119Y-9342380D01*
X12400357Y-9294761D01*
X12447976Y-9247142D01*
X12495595Y-9151904D01*
X12495595Y-9056666D01*
X12447976Y-8961428D01*
X12400357Y-8913809D01*
X12305119Y-8866190D01*
X12114642Y-8818571D01*
X12019404Y-8770952D01*
X11971785Y-8723333D01*
X11924166Y-8628095D01*
X11924166Y-8532857D01*
X11971785Y-8437619D01*
X12019404Y-8390000D01*
X12114642Y-8342380D01*
X12352738Y-8342380D01*
X12495595Y-8390000D01*
X12924166Y-9342380D02*
X12924166Y-8342380D01*
X13305119Y-8342380D01*
X13400357Y-8390000D01*
X13447976Y-8437619D01*
X13495595Y-8532857D01*
X13495595Y-8675714D01*
X13447976Y-8770952D01*
X13400357Y-8818571D01*
X13305119Y-8866190D01*
X12924166Y-8866190D01*
X13924166Y-9342380D02*
X13924166Y-8342380D01*
X14162261Y-8342380D01*
X14305119Y-8390000D01*
X14400357Y-8485238D01*
X14447976Y-8580476D01*
X14495595Y-8770952D01*
X14495595Y-8913809D01*
X14447976Y-9104285D01*
X14400357Y-9199523D01*
X14305119Y-9294761D01*
X14162261Y-9342380D01*
X13924166Y-9342380D01*
X14876547Y-9056666D02*
X15352738Y-9056666D01*
X14781309Y-9342380D02*
X15114642Y-8342380D01*
X15447976Y-9342380D01*
X15638452Y-8342380D02*
X16209880Y-8342380D01*
X15924166Y-9342380D02*
X15924166Y-8342380D01*
X10352738Y-7072380D02*
X10686071Y-8072380D01*
X11019404Y-7072380D01*
X11305119Y-8024761D02*
X11447976Y-8072380D01*
X11686071Y-8072380D01*
X11781309Y-8024761D01*
X11828928Y-7977142D01*
X11876547Y-7881904D01*
X11876547Y-7786666D01*
X11828928Y-7691428D01*
X11781309Y-7643809D01*
X11686071Y-7596190D01*
X11495595Y-7548571D01*
X11400357Y-7500952D01*
X11352738Y-7453333D01*
X11305119Y-7358095D01*
X11305119Y-7262857D01*
X11352738Y-7167619D01*
X11400357Y-7120000D01*
X11495595Y-7072380D01*
X11733690Y-7072380D01*
X11876547Y-7120000D01*
X12257500Y-8024761D02*
X12400357Y-8072380D01*
X12638452Y-8072380D01*
X12733690Y-8024761D01*
X12781309Y-7977142D01*
X12828928Y-7881904D01*
X12828928Y-7786666D01*
X12781309Y-7691428D01*
X12733690Y-7643809D01*
X12638452Y-7596190D01*
X12447976Y-7548571D01*
X12352738Y-7500952D01*
X12305119Y-7453333D01*
X12257500Y-7358095D01*
X12257500Y-7262857D01*
X12305119Y-7167619D01*
X12352738Y-7120000D01*
X12447976Y-7072380D01*
X12686071Y-7072380D01*
X12828928Y-7120000D01*
X10352738Y-5802380D02*
X10686071Y-6802380D01*
X11019404Y-5802380D01*
X11352738Y-6802380D02*
X11352738Y-5802380D01*
X11590833Y-5802380D01*
X11733690Y-5850000D01*
X11828928Y-5945238D01*
X11876547Y-6040476D01*
X11924166Y-6230952D01*
X11924166Y-6373809D01*
X11876547Y-6564285D01*
X11828928Y-6659523D01*
X11733690Y-6754761D01*
X11590833Y-6802380D01*
X11352738Y-6802380D01*
X12352738Y-6802380D02*
X12352738Y-5802380D01*
X12590833Y-5802380D01*
X12733690Y-5850000D01*
X12828928Y-5945238D01*
X12876547Y-6040476D01*
X12924166Y-6230952D01*
X12924166Y-6373809D01*
X12876547Y-6564285D01*
X12828928Y-6659523D01*
X12733690Y-6754761D01*
X12590833Y-6802380D01*
X12352738Y-6802380D01*
X10352738Y-4532380D02*
X10686071Y-5532380D01*
X11019404Y-4532380D01*
X11352738Y-5532380D02*
X11352738Y-4532380D01*
X11733690Y-4532380D01*
X11828928Y-4580000D01*
X11876547Y-4627619D01*
X11924166Y-4722857D01*
X11924166Y-4865714D01*
X11876547Y-4960952D01*
X11828928Y-5008571D01*
X11733690Y-5056190D01*
X11352738Y-5056190D01*
X12352738Y-5532380D02*
X12352738Y-4532380D01*
X12733690Y-4532380D01*
X12828928Y-4580000D01*
X12876547Y-4627619D01*
X12924166Y-4722857D01*
X12924166Y-4865714D01*
X12876547Y-4960952D01*
X12828928Y-5008571D01*
X12733690Y-5056190D01*
X12352738Y-5056190D01*
M02*
