G04 #@! TF.GenerationSoftware,KiCad,Pcbnew,(5.0.2)-1*
G04 #@! TF.CreationDate,2019-05-05T20:39:21-07:00*
G04 #@! TF.ProjectId,pickit3_icsp_adapter,7069636b-6974-4335-9f69-6373705f6164,rev?*
G04 #@! TF.SameCoordinates,Original*
G04 #@! TF.FileFunction,Soldermask,Top*
G04 #@! TF.FilePolarity,Negative*
%FSLAX46Y46*%
G04 Gerber Fmt 4.6, Leading zero omitted, Abs format (unit mm)*
G04 Created by KiCad (PCBNEW (5.0.2)-1) date 5/5/2019 8:39:21 PM*
%MOMM*%
%LPD*%
G01*
G04 APERTURE LIST*
%ADD10C,0.100000*%
G04 APERTURE END LIST*
D10*
G36*
X19160442Y-13710518D02*
X19226627Y-13717037D01*
X19339853Y-13751384D01*
X19396467Y-13768557D01*
X19535087Y-13842652D01*
X19552991Y-13852222D01*
X19588729Y-13881552D01*
X19690186Y-13964814D01*
X19773448Y-14066271D01*
X19802778Y-14102009D01*
X19802779Y-14102011D01*
X19886443Y-14258533D01*
X19886443Y-14258534D01*
X19937963Y-14428373D01*
X19955359Y-14605000D01*
X19937963Y-14781627D01*
X19903616Y-14894853D01*
X19886443Y-14951467D01*
X19812348Y-15090087D01*
X19802778Y-15107991D01*
X19773448Y-15143729D01*
X19690186Y-15245186D01*
X19588729Y-15328448D01*
X19552991Y-15357778D01*
X19552989Y-15357779D01*
X19396467Y-15441443D01*
X19339853Y-15458616D01*
X19226627Y-15492963D01*
X19160443Y-15499481D01*
X19094260Y-15506000D01*
X19005740Y-15506000D01*
X18939557Y-15499481D01*
X18873373Y-15492963D01*
X18760147Y-15458616D01*
X18703533Y-15441443D01*
X18547011Y-15357779D01*
X18547009Y-15357778D01*
X18511271Y-15328448D01*
X18409814Y-15245186D01*
X18326552Y-15143729D01*
X18297222Y-15107991D01*
X18287652Y-15090087D01*
X18213557Y-14951467D01*
X18196384Y-14894853D01*
X18162037Y-14781627D01*
X18144641Y-14605000D01*
X18162037Y-14428373D01*
X18213557Y-14258534D01*
X18213557Y-14258533D01*
X18297221Y-14102011D01*
X18297222Y-14102009D01*
X18326552Y-14066271D01*
X18409814Y-13964814D01*
X18511271Y-13881552D01*
X18547009Y-13852222D01*
X18564913Y-13842652D01*
X18703533Y-13768557D01*
X18760147Y-13751384D01*
X18873373Y-13717037D01*
X18939558Y-13710518D01*
X19005740Y-13704000D01*
X19094260Y-13704000D01*
X19160442Y-13710518D01*
X19160442Y-13710518D01*
G37*
G36*
X19160443Y-11170519D02*
X19226627Y-11177037D01*
X19339853Y-11211384D01*
X19396467Y-11228557D01*
X19535087Y-11302652D01*
X19552991Y-11312222D01*
X19588729Y-11341552D01*
X19690186Y-11424814D01*
X19773448Y-11526271D01*
X19802778Y-11562009D01*
X19802779Y-11562011D01*
X19886443Y-11718533D01*
X19886443Y-11718534D01*
X19937963Y-11888373D01*
X19955359Y-12065000D01*
X19937963Y-12241627D01*
X19903616Y-12354853D01*
X19886443Y-12411467D01*
X19812348Y-12550087D01*
X19802778Y-12567991D01*
X19773448Y-12603729D01*
X19690186Y-12705186D01*
X19588729Y-12788448D01*
X19552991Y-12817778D01*
X19552989Y-12817779D01*
X19396467Y-12901443D01*
X19339853Y-12918616D01*
X19226627Y-12952963D01*
X19160443Y-12959481D01*
X19094260Y-12966000D01*
X19005740Y-12966000D01*
X18939557Y-12959481D01*
X18873373Y-12952963D01*
X18760147Y-12918616D01*
X18703533Y-12901443D01*
X18547011Y-12817779D01*
X18547009Y-12817778D01*
X18511271Y-12788448D01*
X18409814Y-12705186D01*
X18326552Y-12603729D01*
X18297222Y-12567991D01*
X18287652Y-12550087D01*
X18213557Y-12411467D01*
X18196384Y-12354853D01*
X18162037Y-12241627D01*
X18144641Y-12065000D01*
X18162037Y-11888373D01*
X18213557Y-11718534D01*
X18213557Y-11718533D01*
X18297221Y-11562011D01*
X18297222Y-11562009D01*
X18326552Y-11526271D01*
X18409814Y-11424814D01*
X18511271Y-11341552D01*
X18547009Y-11312222D01*
X18564913Y-11302652D01*
X18703533Y-11228557D01*
X18760147Y-11211384D01*
X18873373Y-11177037D01*
X18939557Y-11170519D01*
X19005740Y-11164000D01*
X19094260Y-11164000D01*
X19160443Y-11170519D01*
X19160443Y-11170519D01*
G37*
G36*
X10131000Y-11821000D02*
X29000Y-11821000D01*
X29000Y-11039000D01*
X10131000Y-11039000D01*
X10131000Y-11821000D01*
X10131000Y-11821000D01*
G37*
G36*
X10131000Y-10551000D02*
X29000Y-10551000D01*
X29000Y-9769000D01*
X10131000Y-9769000D01*
X10131000Y-10551000D01*
X10131000Y-10551000D01*
G37*
G36*
X19160443Y-8630519D02*
X19226627Y-8637037D01*
X19339853Y-8671384D01*
X19396467Y-8688557D01*
X19535087Y-8762652D01*
X19552991Y-8772222D01*
X19588729Y-8801552D01*
X19690186Y-8884814D01*
X19773448Y-8986271D01*
X19802778Y-9022009D01*
X19802779Y-9022011D01*
X19886443Y-9178533D01*
X19886443Y-9178534D01*
X19937963Y-9348373D01*
X19955359Y-9525000D01*
X19937963Y-9701627D01*
X19903616Y-9814853D01*
X19886443Y-9871467D01*
X19812348Y-10010087D01*
X19802778Y-10027991D01*
X19773448Y-10063729D01*
X19690186Y-10165186D01*
X19588729Y-10248448D01*
X19552991Y-10277778D01*
X19552989Y-10277779D01*
X19396467Y-10361443D01*
X19339853Y-10378616D01*
X19226627Y-10412963D01*
X19160443Y-10419481D01*
X19094260Y-10426000D01*
X19005740Y-10426000D01*
X18939557Y-10419481D01*
X18873373Y-10412963D01*
X18760147Y-10378616D01*
X18703533Y-10361443D01*
X18547011Y-10277779D01*
X18547009Y-10277778D01*
X18511271Y-10248448D01*
X18409814Y-10165186D01*
X18326552Y-10063729D01*
X18297222Y-10027991D01*
X18287652Y-10010087D01*
X18213557Y-9871467D01*
X18196384Y-9814853D01*
X18162037Y-9701627D01*
X18144641Y-9525000D01*
X18162037Y-9348373D01*
X18213557Y-9178534D01*
X18213557Y-9178533D01*
X18297221Y-9022011D01*
X18297222Y-9022009D01*
X18326552Y-8986271D01*
X18409814Y-8884814D01*
X18511271Y-8801552D01*
X18547009Y-8772222D01*
X18564913Y-8762652D01*
X18703533Y-8688557D01*
X18760147Y-8671384D01*
X18873373Y-8637037D01*
X18939557Y-8630519D01*
X19005740Y-8624000D01*
X19094260Y-8624000D01*
X19160443Y-8630519D01*
X19160443Y-8630519D01*
G37*
G36*
X10131000Y-9281000D02*
X29000Y-9281000D01*
X29000Y-8499000D01*
X10131000Y-8499000D01*
X10131000Y-9281000D01*
X10131000Y-9281000D01*
G37*
G36*
X10131000Y-8011000D02*
X29000Y-8011000D01*
X29000Y-7229000D01*
X10131000Y-7229000D01*
X10131000Y-8011000D01*
X10131000Y-8011000D01*
G37*
G36*
X19160443Y-6090519D02*
X19226627Y-6097037D01*
X19339853Y-6131384D01*
X19396467Y-6148557D01*
X19535087Y-6222652D01*
X19552991Y-6232222D01*
X19588729Y-6261552D01*
X19690186Y-6344814D01*
X19773448Y-6446271D01*
X19802778Y-6482009D01*
X19802779Y-6482011D01*
X19886443Y-6638533D01*
X19886443Y-6638534D01*
X19937963Y-6808373D01*
X19955359Y-6985000D01*
X19937963Y-7161627D01*
X19903616Y-7274853D01*
X19886443Y-7331467D01*
X19812348Y-7470087D01*
X19802778Y-7487991D01*
X19773448Y-7523729D01*
X19690186Y-7625186D01*
X19588729Y-7708448D01*
X19552991Y-7737778D01*
X19552989Y-7737779D01*
X19396467Y-7821443D01*
X19339853Y-7838616D01*
X19226627Y-7872963D01*
X19160442Y-7879482D01*
X19094260Y-7886000D01*
X19005740Y-7886000D01*
X18939558Y-7879482D01*
X18873373Y-7872963D01*
X18760147Y-7838616D01*
X18703533Y-7821443D01*
X18547011Y-7737779D01*
X18547009Y-7737778D01*
X18511271Y-7708448D01*
X18409814Y-7625186D01*
X18326552Y-7523729D01*
X18297222Y-7487991D01*
X18287652Y-7470087D01*
X18213557Y-7331467D01*
X18196384Y-7274853D01*
X18162037Y-7161627D01*
X18144641Y-6985000D01*
X18162037Y-6808373D01*
X18213557Y-6638534D01*
X18213557Y-6638533D01*
X18297221Y-6482011D01*
X18297222Y-6482009D01*
X18326552Y-6446271D01*
X18409814Y-6344814D01*
X18511271Y-6261552D01*
X18547009Y-6232222D01*
X18564913Y-6222652D01*
X18703533Y-6148557D01*
X18760147Y-6131384D01*
X18873373Y-6097037D01*
X18939557Y-6090519D01*
X19005740Y-6084000D01*
X19094260Y-6084000D01*
X19160443Y-6090519D01*
X19160443Y-6090519D01*
G37*
G36*
X10131000Y-6741000D02*
X29000Y-6741000D01*
X29000Y-5959000D01*
X10131000Y-5959000D01*
X10131000Y-6741000D01*
X10131000Y-6741000D01*
G37*
G36*
X10131000Y-5471000D02*
X29000Y-5471000D01*
X29000Y-4689000D01*
X10131000Y-4689000D01*
X10131000Y-5471000D01*
X10131000Y-5471000D01*
G37*
G36*
X19160442Y-3550518D02*
X19226627Y-3557037D01*
X19339853Y-3591384D01*
X19396467Y-3608557D01*
X19535087Y-3682652D01*
X19552991Y-3692222D01*
X19588729Y-3721552D01*
X19690186Y-3804814D01*
X19773448Y-3906271D01*
X19802778Y-3942009D01*
X19802779Y-3942011D01*
X19886443Y-4098533D01*
X19886443Y-4098534D01*
X19937963Y-4268373D01*
X19955359Y-4445000D01*
X19937963Y-4621627D01*
X19903616Y-4734853D01*
X19886443Y-4791467D01*
X19812348Y-4930087D01*
X19802778Y-4947991D01*
X19773448Y-4983729D01*
X19690186Y-5085186D01*
X19588729Y-5168448D01*
X19552991Y-5197778D01*
X19552989Y-5197779D01*
X19396467Y-5281443D01*
X19339853Y-5298616D01*
X19226627Y-5332963D01*
X19160443Y-5339481D01*
X19094260Y-5346000D01*
X19005740Y-5346000D01*
X18939557Y-5339481D01*
X18873373Y-5332963D01*
X18760147Y-5298616D01*
X18703533Y-5281443D01*
X18547011Y-5197779D01*
X18547009Y-5197778D01*
X18511271Y-5168448D01*
X18409814Y-5085186D01*
X18326552Y-4983729D01*
X18297222Y-4947991D01*
X18287652Y-4930087D01*
X18213557Y-4791467D01*
X18196384Y-4734853D01*
X18162037Y-4621627D01*
X18144641Y-4445000D01*
X18162037Y-4268373D01*
X18213557Y-4098534D01*
X18213557Y-4098533D01*
X18297221Y-3942011D01*
X18297222Y-3942009D01*
X18326552Y-3906271D01*
X18409814Y-3804814D01*
X18511271Y-3721552D01*
X18547009Y-3692222D01*
X18564913Y-3682652D01*
X18703533Y-3608557D01*
X18760147Y-3591384D01*
X18873373Y-3557037D01*
X18939558Y-3550518D01*
X19005740Y-3544000D01*
X19094260Y-3544000D01*
X19160442Y-3550518D01*
X19160442Y-3550518D01*
G37*
G36*
X19951000Y-2806000D02*
X18149000Y-2806000D01*
X18149000Y-1004000D01*
X19951000Y-1004000D01*
X19951000Y-2806000D01*
X19951000Y-2806000D01*
G37*
M02*
