G04 #@! TF.GenerationSoftware,KiCad,Pcbnew,(5.0.2)-1*
G04 #@! TF.CreationDate,2019-05-05T04:12:21-07:00*
G04 #@! TF.ProjectId,pickit3_icsp_adapter,7069636b-6974-4335-9f69-6373705f6164,rev?*
G04 #@! TF.SameCoordinates,Original*
G04 #@! TF.FileFunction,Legend,Bot*
G04 #@! TF.FilePolarity,Positive*
%FSLAX46Y46*%
G04 Gerber Fmt 4.6, Leading zero omitted, Abs format (unit mm)*
G04 Created by KiCad (PCBNEW (5.0.2)-1) date 5/5/2019 4:12:21 AM*
%MOMM*%
%LPD*%
G01*
G04 APERTURE LIST*
%ADD10C,0.150000*%
G04 APERTURE END LIST*
D10*
X122873214Y-95035714D02*
X122873214Y-95892857D01*
X122920833Y-95988095D01*
X123016071Y-96035714D01*
X123063690Y-96035714D01*
X122873214Y-94702380D02*
X122920833Y-94750000D01*
X122873214Y-94797619D01*
X122825595Y-94750000D01*
X122873214Y-94702380D01*
X122873214Y-94797619D01*
X122254166Y-95702380D02*
X122349404Y-95654761D01*
X122397023Y-95607142D01*
X122444642Y-95511904D01*
X122444642Y-95226190D01*
X122397023Y-95130952D01*
X122349404Y-95083333D01*
X122254166Y-95035714D01*
X122111309Y-95035714D01*
X122016071Y-95083333D01*
X121968452Y-95130952D01*
X121920833Y-95226190D01*
X121920833Y-95511904D01*
X121968452Y-95607142D01*
X122016071Y-95654761D01*
X122111309Y-95702380D01*
X122254166Y-95702380D01*
X121492261Y-95702380D02*
X121492261Y-94702380D01*
X121063690Y-95702380D02*
X121063690Y-95178571D01*
X121111309Y-95083333D01*
X121206547Y-95035714D01*
X121349404Y-95035714D01*
X121444642Y-95083333D01*
X121492261Y-95130952D01*
X120587500Y-95035714D02*
X120587500Y-95702380D01*
X120587500Y-95130952D02*
X120539880Y-95083333D01*
X120444642Y-95035714D01*
X120301785Y-95035714D01*
X120206547Y-95083333D01*
X120158928Y-95178571D01*
X120158928Y-95702380D01*
X119682738Y-95702380D02*
X119682738Y-95035714D01*
X119682738Y-95130952D02*
X119635119Y-95083333D01*
X119539880Y-95035714D01*
X119397023Y-95035714D01*
X119301785Y-95083333D01*
X119254166Y-95178571D01*
X119254166Y-95702380D01*
X119254166Y-95178571D02*
X119206547Y-95083333D01*
X119111309Y-95035714D01*
X118968452Y-95035714D01*
X118873214Y-95083333D01*
X118825595Y-95178571D01*
X118825595Y-95702380D01*
X117920833Y-95654761D02*
X118016071Y-95702380D01*
X118206547Y-95702380D01*
X118301785Y-95654761D01*
X118349404Y-95607142D01*
X118397023Y-95511904D01*
X118397023Y-95226190D01*
X118349404Y-95130952D01*
X118301785Y-95083333D01*
X118206547Y-95035714D01*
X118016071Y-95035714D01*
X117920833Y-95083333D01*
X117492261Y-95035714D02*
X117492261Y-95702380D01*
X117492261Y-95130952D02*
X117444642Y-95083333D01*
X117349404Y-95035714D01*
X117206547Y-95035714D01*
X117111309Y-95083333D01*
X117063690Y-95178571D01*
X117063690Y-95702380D01*
X116206547Y-95654761D02*
X116301785Y-95702380D01*
X116492261Y-95702380D01*
X116587500Y-95654761D01*
X116635119Y-95559523D01*
X116635119Y-95178571D01*
X116587500Y-95083333D01*
X116492261Y-95035714D01*
X116301785Y-95035714D01*
X116206547Y-95083333D01*
X116158928Y-95178571D01*
X116158928Y-95273809D01*
X116635119Y-95369047D01*
X115587500Y-95702380D02*
X115682738Y-95654761D01*
X115730357Y-95559523D01*
X115730357Y-94702380D01*
X115063690Y-95702380D02*
X115158928Y-95654761D01*
X115206547Y-95559523D01*
X115206547Y-94702380D01*
X114777976Y-95035714D02*
X114539880Y-95702380D01*
X114301785Y-95035714D02*
X114539880Y-95702380D01*
X114635119Y-95940476D01*
X114682738Y-95988095D01*
X114777976Y-96035714D01*
X113920833Y-95607142D02*
X113873214Y-95654761D01*
X113920833Y-95702380D01*
X113968452Y-95654761D01*
X113920833Y-95607142D01*
X113920833Y-95702380D01*
X113016071Y-95654761D02*
X113111309Y-95702380D01*
X113301785Y-95702380D01*
X113397023Y-95654761D01*
X113444642Y-95607142D01*
X113492261Y-95511904D01*
X113492261Y-95226190D01*
X113444642Y-95130952D01*
X113397023Y-95083333D01*
X113301785Y-95035714D01*
X113111309Y-95035714D01*
X113016071Y-95083333D01*
X112444642Y-95702380D02*
X112539880Y-95654761D01*
X112587500Y-95607142D01*
X112635119Y-95511904D01*
X112635119Y-95226190D01*
X112587500Y-95130952D01*
X112539880Y-95083333D01*
X112444642Y-95035714D01*
X112301785Y-95035714D01*
X112206547Y-95083333D01*
X112158928Y-95130952D01*
X112111309Y-95226190D01*
X112111309Y-95511904D01*
X112158928Y-95607142D01*
X112206547Y-95654761D01*
X112301785Y-95702380D01*
X112444642Y-95702380D01*
X111682738Y-95702380D02*
X111682738Y-95035714D01*
X111682738Y-95130952D02*
X111635119Y-95083333D01*
X111539880Y-95035714D01*
X111397023Y-95035714D01*
X111301785Y-95083333D01*
X111254166Y-95178571D01*
X111254166Y-95702380D01*
X111254166Y-95178571D02*
X111206547Y-95083333D01*
X111111309Y-95035714D01*
X110968452Y-95035714D01*
X110873214Y-95083333D01*
X110825595Y-95178571D01*
X110825595Y-95702380D01*
X120349404Y-91067380D02*
X120349404Y-90067380D01*
X119968452Y-90067380D01*
X119873214Y-90115000D01*
X119825595Y-90162619D01*
X119777976Y-90257857D01*
X119777976Y-90400714D01*
X119825595Y-90495952D01*
X119873214Y-90543571D01*
X119968452Y-90591190D01*
X120349404Y-90591190D01*
X119349404Y-91067380D02*
X119349404Y-90400714D01*
X119349404Y-90067380D02*
X119397023Y-90115000D01*
X119349404Y-90162619D01*
X119301785Y-90115000D01*
X119349404Y-90067380D01*
X119349404Y-90162619D01*
X118444642Y-91019761D02*
X118539880Y-91067380D01*
X118730357Y-91067380D01*
X118825595Y-91019761D01*
X118873214Y-90972142D01*
X118920833Y-90876904D01*
X118920833Y-90591190D01*
X118873214Y-90495952D01*
X118825595Y-90448333D01*
X118730357Y-90400714D01*
X118539880Y-90400714D01*
X118444642Y-90448333D01*
X118016071Y-91067380D02*
X118016071Y-90067380D01*
X117920833Y-90686428D02*
X117635119Y-91067380D01*
X117635119Y-90400714D02*
X118016071Y-90781666D01*
X117206547Y-91067380D02*
X117206547Y-90400714D01*
X117206547Y-90067380D02*
X117254166Y-90115000D01*
X117206547Y-90162619D01*
X117158928Y-90115000D01*
X117206547Y-90067380D01*
X117206547Y-90162619D01*
X116873214Y-90400714D02*
X116492261Y-90400714D01*
X116730357Y-90067380D02*
X116730357Y-90924523D01*
X116682738Y-91019761D01*
X116587500Y-91067380D01*
X116492261Y-91067380D01*
X116254166Y-90067380D02*
X115635119Y-90067380D01*
X115968452Y-90448333D01*
X115825595Y-90448333D01*
X115730357Y-90495952D01*
X115682738Y-90543571D01*
X115635119Y-90638809D01*
X115635119Y-90876904D01*
X115682738Y-90972142D01*
X115730357Y-91019761D01*
X115825595Y-91067380D01*
X116111309Y-91067380D01*
X116206547Y-91019761D01*
X116254166Y-90972142D01*
X114444642Y-91067380D02*
X114444642Y-90067380D01*
X114063690Y-90067380D01*
X113968452Y-90115000D01*
X113920833Y-90162619D01*
X113873214Y-90257857D01*
X113873214Y-90400714D01*
X113920833Y-90495952D01*
X113968452Y-90543571D01*
X114063690Y-90591190D01*
X114444642Y-90591190D01*
X113254166Y-90067380D02*
X113063690Y-90067380D01*
X112968452Y-90115000D01*
X112873214Y-90210238D01*
X112825595Y-90400714D01*
X112825595Y-90734047D01*
X112873214Y-90924523D01*
X112968452Y-91019761D01*
X113063690Y-91067380D01*
X113254166Y-91067380D01*
X113349404Y-91019761D01*
X113444642Y-90924523D01*
X113492261Y-90734047D01*
X113492261Y-90400714D01*
X113444642Y-90210238D01*
X113349404Y-90115000D01*
X113254166Y-90067380D01*
X111873214Y-90115000D02*
X111968452Y-90067380D01*
X112111309Y-90067380D01*
X112254166Y-90115000D01*
X112349404Y-90210238D01*
X112397023Y-90305476D01*
X112444642Y-90495952D01*
X112444642Y-90638809D01*
X112397023Y-90829285D01*
X112349404Y-90924523D01*
X112254166Y-91019761D01*
X112111309Y-91067380D01*
X112016071Y-91067380D01*
X111873214Y-91019761D01*
X111825595Y-90972142D01*
X111825595Y-90638809D01*
X112016071Y-90638809D01*
X111206547Y-90067380D02*
X111016071Y-90067380D01*
X110920833Y-90115000D01*
X110825595Y-90210238D01*
X110777976Y-90400714D01*
X110777976Y-90734047D01*
X110825595Y-90924523D01*
X110920833Y-91019761D01*
X111016071Y-91067380D01*
X111206547Y-91067380D01*
X111301785Y-91019761D01*
X111397023Y-90924523D01*
X111444642Y-90734047D01*
X111444642Y-90400714D01*
X111397023Y-90210238D01*
X111301785Y-90115000D01*
X111206547Y-90067380D01*
X124063690Y-92717380D02*
X124063690Y-91717380D01*
X123016071Y-92622142D02*
X123063690Y-92669761D01*
X123206547Y-92717380D01*
X123301785Y-92717380D01*
X123444642Y-92669761D01*
X123539880Y-92574523D01*
X123587500Y-92479285D01*
X123635119Y-92288809D01*
X123635119Y-92145952D01*
X123587500Y-91955476D01*
X123539880Y-91860238D01*
X123444642Y-91765000D01*
X123301785Y-91717380D01*
X123206547Y-91717380D01*
X123063690Y-91765000D01*
X123016071Y-91812619D01*
X122635119Y-92669761D02*
X122492261Y-92717380D01*
X122254166Y-92717380D01*
X122158928Y-92669761D01*
X122111309Y-92622142D01*
X122063690Y-92526904D01*
X122063690Y-92431666D01*
X122111309Y-92336428D01*
X122158928Y-92288809D01*
X122254166Y-92241190D01*
X122444642Y-92193571D01*
X122539880Y-92145952D01*
X122587500Y-92098333D01*
X122635119Y-92003095D01*
X122635119Y-91907857D01*
X122587500Y-91812619D01*
X122539880Y-91765000D01*
X122444642Y-91717380D01*
X122206547Y-91717380D01*
X122063690Y-91765000D01*
X121635119Y-92717380D02*
X121635119Y-91717380D01*
X121254166Y-91717380D01*
X121158928Y-91765000D01*
X121111309Y-91812619D01*
X121063690Y-91907857D01*
X121063690Y-92050714D01*
X121111309Y-92145952D01*
X121158928Y-92193571D01*
X121254166Y-92241190D01*
X121635119Y-92241190D01*
X119920833Y-92431666D02*
X119444642Y-92431666D01*
X120016071Y-92717380D02*
X119682738Y-91717380D01*
X119349404Y-92717380D01*
X118587500Y-92717380D02*
X118587500Y-91717380D01*
X118587500Y-92669761D02*
X118682738Y-92717380D01*
X118873214Y-92717380D01*
X118968452Y-92669761D01*
X119016071Y-92622142D01*
X119063690Y-92526904D01*
X119063690Y-92241190D01*
X119016071Y-92145952D01*
X118968452Y-92098333D01*
X118873214Y-92050714D01*
X118682738Y-92050714D01*
X118587500Y-92098333D01*
X117682738Y-92717380D02*
X117682738Y-92193571D01*
X117730357Y-92098333D01*
X117825595Y-92050714D01*
X118016071Y-92050714D01*
X118111309Y-92098333D01*
X117682738Y-92669761D02*
X117777976Y-92717380D01*
X118016071Y-92717380D01*
X118111309Y-92669761D01*
X118158928Y-92574523D01*
X118158928Y-92479285D01*
X118111309Y-92384047D01*
X118016071Y-92336428D01*
X117777976Y-92336428D01*
X117682738Y-92288809D01*
X117206547Y-92050714D02*
X117206547Y-93050714D01*
X117206547Y-92098333D02*
X117111309Y-92050714D01*
X116920833Y-92050714D01*
X116825595Y-92098333D01*
X116777976Y-92145952D01*
X116730357Y-92241190D01*
X116730357Y-92526904D01*
X116777976Y-92622142D01*
X116825595Y-92669761D01*
X116920833Y-92717380D01*
X117111309Y-92717380D01*
X117206547Y-92669761D01*
X116444642Y-92050714D02*
X116063690Y-92050714D01*
X116301785Y-91717380D02*
X116301785Y-92574523D01*
X116254166Y-92669761D01*
X116158928Y-92717380D01*
X116063690Y-92717380D01*
X115349404Y-92669761D02*
X115444642Y-92717380D01*
X115635119Y-92717380D01*
X115730357Y-92669761D01*
X115777976Y-92574523D01*
X115777976Y-92193571D01*
X115730357Y-92098333D01*
X115635119Y-92050714D01*
X115444642Y-92050714D01*
X115349404Y-92098333D01*
X115301785Y-92193571D01*
X115301785Y-92288809D01*
X115777976Y-92384047D01*
X114873214Y-92717380D02*
X114873214Y-92050714D01*
X114873214Y-92241190D02*
X114825595Y-92145952D01*
X114777976Y-92098333D01*
X114682738Y-92050714D01*
X114587500Y-92050714D01*
X113587500Y-92050714D02*
X113349404Y-92717380D01*
X113111309Y-92050714D01*
X112206547Y-92717380D02*
X112777976Y-92717380D01*
X112492261Y-92717380D02*
X112492261Y-91717380D01*
X112587500Y-91860238D01*
X112682738Y-91955476D01*
X112777976Y-92003095D01*
X111777976Y-92622142D02*
X111730357Y-92669761D01*
X111777976Y-92717380D01*
X111825595Y-92669761D01*
X111777976Y-92622142D01*
X111777976Y-92717380D01*
X111111309Y-91717380D02*
X111016071Y-91717380D01*
X110920833Y-91765000D01*
X110873214Y-91812619D01*
X110825595Y-91907857D01*
X110777976Y-92098333D01*
X110777976Y-92336428D01*
X110825595Y-92526904D01*
X110873214Y-92622142D01*
X110920833Y-92669761D01*
X111016071Y-92717380D01*
X111111309Y-92717380D01*
X111206547Y-92669761D01*
X111254166Y-92622142D01*
X111301785Y-92526904D01*
X111349404Y-92336428D01*
X111349404Y-92098333D01*
X111301785Y-91907857D01*
X111254166Y-91812619D01*
X111206547Y-91765000D01*
X111111309Y-91717380D01*
M02*
